<?xml version="1.0" encoding="utf-8"?>
<!-- Generator: Adobe Illustrator 21.0.0, SVG Export Plug-In . SVG Version: 6.00 Build 0)  -->
<svg version="1.1" id="Layer_1" xmlns="http://www.w3.org/2000/svg" xmlns:xlink="http://www.w3.org/1999/xlink" x="0px" y="0px"
	 viewBox="0 0 400 77.5" enable-background="new 0 0 400 77.5" xml:space="preserve">
<defs>
	<style>
      
	
	</style>
</defs>

<g id="pan">
	<path d="M21.979,7.281V6.645h17.814c6.334,0,10.936,0.708,13.807,2.124c2.87,1.416,4.962,3.178,6.277,5.287
		c1.315,2.11,1.972,4.892,1.972,8.346c0,5.295-1.824,9.273-5.472,11.935c-3.647,2.662-8.596,3.936-14.845,3.823v-0.636
		c3.958,0,7.175-1.215,9.649-3.648c2.474-2.432,3.711-5.626,3.711-9.586c0-3.082-0.601-5.817-1.803-8.207
		c-1.202-2.389-2.892-4.206-5.068-5.451c-2.178-1.244-5.5-1.866-9.968-1.866h-4.454v53.448c0,3.023,0.339,4.825,1.018,5.404
		c0.678,0.579,1.965,0.868,3.859,0.868v0.637h-16.5v-0.637c2.94,0,4.411-1.342,4.411-4.026V12.749c0-2.204-0.283-3.666-0.848-4.387
		C24.976,7.642,23.788,7.281,21.979,7.281z"/>
	<path d="M126.881,37.948H92.567v24.016c0,2.26,0.106,3.699,0.318,4.32c0.212,0.622,0.607,1.145,1.188,1.567
		c0.579,0.424,1.591,0.635,3.033,0.635v0.637h-16.16v-0.637c2.94,0.198,4.411-1.229,4.411-4.281V13.978
		c0-2.854-0.233-4.662-0.7-5.425c-0.467-0.763-1.704-1.187-3.711-1.271V6.645h16.16v0.636c-1.781,0.113-2.984,0.453-3.605,1.018
		c-0.622,0.566-0.933,1.726-0.933,3.479v24.431h34.314V13.855c0-2.545-0.219-4.277-0.658-5.196
		c-0.438-0.918-1.661-1.378-3.669-1.378V6.645h15.948v0.636c-1.26,0-2.199,0.148-2.815,0.445c-0.617,0.297-1.036,0.755-1.26,1.377
		c-0.224,0.622-0.336,2.205-0.336,4.748V61.79c0,2.459,0.112,3.991,0.336,4.599c0.224,0.607,0.616,1.109,1.177,1.505
		c0.56,0.396,1.526,0.593,2.898,0.593v0.637h-15.948v-0.637c1.725,0,2.877-0.353,3.457-1.059c0.579-0.706,0.87-2.612,0.87-5.718
		V37.948z"/>
	<path d="M192.846,5.712c8.766,0,15.934,2.666,21.505,7.995c5.57,5.331,8.355,11.982,8.355,19.957
		c0,10.264-3.224,18.904-9.67,25.916c-6.447,7.014-15.002,10.52-25.662,10.52c-8.653,0-15.736-2.827-21.25-8.483
		c-5.514-5.655-8.271-12.441-8.271-20.359c0-5.344,1.329-10.83,3.987-16.457c2.658-5.627,6.66-10.215,12.004-13.764
		C179.188,7.486,185.522,5.712,192.846,5.712z M192.591,66.79c4.298,0,8.54-1.151,12.725-3.457c4.185-2.304,7.479-5.478,9.883-9.522
		c2.402-4.043,3.605-8.199,3.605-12.47c0-6.051-1.619-11.551-4.857-16.5c-3.237-4.948-7.437-8.823-12.597-11.622
		c-5.161-2.799-9.933-4.199-14.315-4.199c-6.193,0-11.813,2.333-16.86,6.999c-5.047,4.666-7.571,10.463-7.571,17.391
		c0,8.851,3.082,16.627,9.247,23.328C178.014,63.439,184.928,66.79,192.591,66.79z"/>
	<path d="M293.251,6.645h12.089v0.636c-1.839,0.057-3.111,0.445-3.817,1.166c-0.707,0.721-1.061,2.242-1.061,4.56v56.879
		l-49.838-53.068V63.02c0,1.469,0.112,2.557,0.339,3.263c0.227,0.707,0.552,1.188,0.976,1.441c0.424,0.255,1.484,0.509,3.182,0.763
		v0.637h-12.004v-0.637c2.148,0,3.484-0.381,4.008-1.145c0.523-0.763,0.785-2.585,0.785-5.467v-42.26
		c0-3.701-0.517-6.725-1.548-9.07c-1.033-2.345-3.415-3.434-7.147-3.264V6.645h11.749l46.827,49.862V12.412
		c0-2.374-0.424-3.823-1.272-4.346s-1.938-0.785-3.267-0.785V6.645z"/>
</g>
<g>
	<path d="M359.089,6.384c8.766,0,15.934,2.666,21.505,7.995c5.57,5.331,8.355,11.982,8.355,19.957
		c0,10.265-3.224,18.904-9.671,25.917s-15.001,10.519-25.661,10.519c-8.652,0-15.736-2.827-21.25-8.482
		c-5.515-5.655-8.271-12.442-8.271-20.36c0-5.344,1.329-10.83,3.987-16.457c2.657-5.627,6.659-10.215,12.004-13.764
		C345.431,8.158,351.765,6.384,359.089,6.384z M358.834,67.462c4.298,0,8.54-1.151,12.725-3.456s7.479-5.479,9.883-9.522
		s3.605-8.2,3.605-12.471c0-6.051-1.619-11.551-4.856-16.5c-3.238-4.948-7.438-8.823-12.598-11.622s-9.933-4.199-14.314-4.199
		c-6.193,0-11.813,2.333-16.86,6.999c-5.048,4.666-7.571,10.463-7.571,17.391c0,8.852,3.082,16.627,9.246,23.329
		C344.257,64.111,351.171,67.462,358.834,67.462z"/>
</g>
<line opacity="0.01" fill="none" stroke="#000000" stroke-miterlimit="10" x1="313.337" y1="32" x2="313.328" y2="32"/>
<line fill="none" stroke="#000000" stroke-width="2" stroke-miterlimit="10" x1="314.328" y1="3" x2="314.337" y2="72.167"/>
<g>
	<ellipse transform="matrix(0.9409 -0.3386 0.3386 0.9409 3.2087 94.9235)" cx="273.648" cy="38.266" rx="31.418" ry="31.418"/>
	
		<ellipse transform="matrix(0.9809 -0.1947 0.1947 0.9809 -2.213 54.0199)" fill="#E21313" cx="273.648" cy="38.266" rx="0.961" ry="0.961"/>
	
		<ellipse transform="matrix(0.9809 -0.1947 0.1947 0.9809 -2.213 54.0199)" fill="none" stroke="#B72C3D" stroke-width="3" stroke-miterlimit="10" cx="273.648" cy="38.266" rx="12.424" ry="12.424"/>
	
		<ellipse transform="matrix(0.9409 -0.3386 0.3386 0.9409 3.2087 94.9235)" opacity="0.5" fill="none" stroke="#B5B5B5" stroke-width="0.3" stroke-miterlimit="10" cx="273.648" cy="38.266" rx="27.661" ry="27.661"/>
	
		<ellipse transform="matrix(0.9409 -0.3386 0.3386 0.9409 3.2941 94.8905)" opacity="0.5" fill="none" stroke="#B5B5B5" stroke-width="0.3" stroke-miterlimit="10" cx="273.596" cy="38.005" rx="23.71" ry="23.71"/>
	
		<ellipse transform="matrix(0.9409 -0.3386 0.3386 0.9409 3.2941 94.8905)" opacity="0.5" fill="none" stroke="#B5B5B5" stroke-width="0.3" stroke-miterlimit="10" cx="273.596" cy="38.005" rx="19.758" ry="19.758"/>
	
		<ellipse transform="matrix(0.9409 -0.3386 0.3386 0.9409 3.2941 94.8905)" opacity="0.5" fill="none" stroke="#B5B5B5" stroke-width="0.3" stroke-miterlimit="10" cx="273.596" cy="38.005" rx="21.734" ry="21.734"/>
	
		<ellipse transform="matrix(0.9409 -0.3386 0.3386 0.9409 3.2941 94.8905)" opacity="0.5" fill="none" stroke="#B5B5B5" stroke-width="0.3" stroke-miterlimit="10" cx="273.596" cy="38.005" rx="25.685" ry="25.685"/>
	
		<ellipse transform="matrix(0.9409 -0.3386 0.3386 0.9409 3.2087 94.9235)" opacity="0.5" fill="none" stroke="#B5B5B5" stroke-width="0.3" stroke-miterlimit="10" cx="273.648" cy="38.266" rx="17.782" ry="17.782"/>
	<g>
		<path fill="none" stroke="#E2E2E2" stroke-width="0.3" stroke-miterlimit="10" d="M256.857,60.212
			c-0.226-0.172-0.459-0.335-0.68-0.515C256.333,59.821,256.564,59.998,256.857,60.212z"/>
		<path fill="none" stroke="#E2E2E2" stroke-width="0.3" stroke-miterlimit="10" d="M257.258,60.498
			c-0.132-0.097-0.27-0.186-0.4-0.286C256.979,60.301,257.113,60.397,257.258,60.498z"/>
		<path fill="none" stroke="#E2E2E2" stroke-width="0.3" stroke-miterlimit="10" d="M257.258,60.498
			c3.742,2.753,8.127,4.556,12.759,5.175C264.023,64.762,259.406,62.001,257.258,60.498z"/>
		<path fill="none" stroke="#E2E2E2" stroke-width="0.3" stroke-miterlimit="10" d="M270.016,65.673
			c3.865,0.587,8.298,0.404,13.004-1.392C278.708,65.832,274.265,66.24,270.016,65.673z"/>
		<path fill="none" stroke="#E2E2E2" stroke-width="0.3" stroke-miterlimit="10" d="M255.924,59.491c0,0,0.091,0.078,0.254,0.207
			c-0.085-0.069-0.166-0.142-0.25-0.212L255.924,59.491z"/>
		<path fill="none" stroke="#E2E2E2" stroke-width="0.3" stroke-miterlimit="10" d="M281.593,60.314
			c-8.127,2.91-16.797,1.111-23.026-3.988"/>
		<path fill="none" stroke="#E2E2E2" stroke-width="0.3" stroke-miterlimit="10" d="M257.3,57.842
			c6.75,5.533,16.15,7.487,24.961,4.331"/>
		<path fill="none" stroke="#E2E2E2" stroke-width="0.3" stroke-miterlimit="10" d="M259.833,54.809
			c5.709,4.665,13.648,6.31,21.091,3.646"/>
		<path fill="none" stroke="#E2E2E2" stroke-width="0.3" stroke-miterlimit="10" d="M280.255,56.596
			c-6.759,2.417-13.968,0.928-19.156-3.304"/>
		<path fill="none" stroke="#E2E2E2" stroke-width="0.3" stroke-miterlimit="10" d="M262.259,51.903
			c4.687,3.906,11.261,5.298,17.417,3.083"/>
	</g>
	<g>
		<path fill="none" stroke="#E2E2E2" stroke-width="0.3" stroke-miterlimit="10" d="M290.461,16.303
			c0.226,0.172,0.459,0.335,0.68,0.515C290.985,16.694,290.754,16.517,290.461,16.303z"/>
		<path fill="none" stroke="#E2E2E2" stroke-width="0.3" stroke-miterlimit="10" d="M290.06,16.017
			c0.132,0.097,0.27,0.186,0.4,0.286C290.339,16.214,290.205,16.119,290.06,16.017z"/>
		<path fill="none" stroke="#E2E2E2" stroke-width="0.3" stroke-miterlimit="10" d="M290.06,16.017
			c-3.742-2.753-8.127-4.556-12.759-5.175C283.295,11.753,287.912,14.515,290.06,16.017z"/>
		<path fill="none" stroke="#E2E2E2" stroke-width="0.3" stroke-miterlimit="10" d="M277.302,10.843
			c-3.865-0.587-8.298-0.404-13.004,1.392C268.61,10.683,273.053,10.275,277.302,10.843z"/>
		<path fill="none" stroke="#E2E2E2" stroke-width="0.3" stroke-miterlimit="10" d="M265.641,15.689
			c8.127-2.91,16.797-1.111,23.026,3.988"/>
		<path fill="none" stroke="#E2E2E2" stroke-width="0.3" stroke-miterlimit="10" d="M289.922,18.149
			c-6.75-5.533-16.15-7.487-24.961-4.331"/>
		<path fill="none" stroke="#E2E2E2" stroke-width="0.3" stroke-miterlimit="10" d="M287.401,21.194
			c-5.709-4.665-13.648-6.31-21.091-3.646"/>
		<path fill="none" stroke="#E2E2E2" stroke-width="0.3" stroke-miterlimit="10" d="M266.979,19.407
			c6.759-2.417,13.968-0.928,19.156,3.304"/>
		<path fill="none" stroke="#E2E2E2" stroke-width="0.3" stroke-miterlimit="10" d="M285.06,24.612
			c-4.687-3.906-11.261-5.298-17.417-3.083"/>
	</g>
</g>
</svg>
